Format : AVI
Format/Info : Audio Video Interleave
Format profile : OpenDML
File size : 1.02 GiB
Duration : 1h 57mn
Overall bit rate : 1 239 Kbps
Writing application : Lavf52.39.1

Video
ID : 0
Format : xvid
Codec ID : xvid
Duration : 1h 57mn
Bit rate : 67.7 Kbps
Width : 624 pixels
Height : 272 pixels
Display aspect ratio : 2.25:1
Frame rate : 24.000 fps
Bits/(Pixel*Frame) : 0.017
Stream size : 57.1 MiB (5%)

Audio
ID : 1
Format : MPEG Audio
Format version : Version 1
Format profile : Layer 2
Codec ID : 50
Duration : 1h 57mn
Bit rate mode : Constant
Bit rate : 64.0 Kbps
Channel(s) : 2 channels
Sampling rate : 48.0 KHz
Compression mode : Lossy
Stream size : 650 KiB (0%)
Alignment : Aligned on interleaves
Interleave, duration : 122 ms (2.94 video frames) 